<svg xmlns="http://www.w3.org/2000/svg" viewBox="0 0 48 48">
  <path d="M45 16.2l-5 2.75-5 4.75V40h7c1.657 0 3-1.343 3-3V16.2z" fill="#4caf50"/>
  <path d="M3 16.2l3.614 1.71L13 23.7V40H6c-1.657 0-3-1.343-3-3V16.2z" fill="#1e88e5"/>
  <path d="M35 11.2L24 19.45 13 11.2 6.846 6.58C8.13 5.588 9.792 5 11.5 5h25c1.708 0 3.37.588 4.654 1.58L35 11.2z" fill="#e53935"/>
  <path d="M35 11.2v12.5l10-7.5V10c0-1.657-1.343-3-3-3h-1.232L35 11.2z" fill="#c62828"/>
  <path d="M13 11.2v12.5L3 16.2V10c0-1.657 1.343-3 3-3h1.232L13 11.2z" fill="#fbc02d"/>
  <path d="M35 23.7L24 31.95 13 23.7v-12.5l11 8.25 11-8.25v12.5z" fill="#fafafa"/>
</svg>
